<?xml version="1.0" standalone="no"?>
<svg viewBox="0 0 200 200" xmlns="http://www.w3.org/2000/svg">
  <path fill="#66CC66" d="M42.2,-64.4C57,-56.1,72.9,-48.3,81,-35.5C89,-22.8,89.2,-5,82.1,8.5C75,21.9,60.6,30.9,50,43.5C39.4,56,32.6,72.1,21,78.9C9.4,85.7,-7.2,83.2,-21.7,77.4C-36.3,71.6,-48.9,62.4,-55.6,50.5C-62.3,38.6,-63.1,23.9,-63.9,10C-64.7,-4,-65.5,-17.1,-62.7,-30.9C-60,-44.8,-53.7,-59.2,-42.6,-69.2C-31.6,-79.2,-15.8,-84.7,-1.1,-83C13.7,-81.4,27.4,-72.6,42.2,-64.4Z" transform="translate(100 100)" />
</svg>
