<?xml version="1.0" standalone="no"?>
<svg viewBox="0 0 200 200" xmlns="http://www.w3.org/2000/svg">
  <path fill="#66CC66" d="M37.8,-58.5C52.2,-49.6,69.4,-44.5,74.7,-33.8C80,-23.1,73.5,-6.7,69.4,8.8C65.4,24.4,63.8,39.1,55.2,46.3C46.6,53.6,31.1,53.3,17.2,56.4C3.2,59.6,-9.1,66.2,-22.1,66.5C-35.2,66.7,-49,60.5,-54.1,49.6C-59.3,38.8,-55.8,23.1,-58.7,8C-61.5,-7.2,-70.7,-21.8,-70.4,-36.2C-70.2,-50.6,-60.4,-64.6,-47,-74.1C-33.7,-83.5,-16.9,-88.2,-2.6,-84.2C11.7,-80.2,23.4,-67.4,37.8,-58.5Z" transform="translate(100 100)" />
</svg>
